HIERARCHY
ROOT Hips
{
  OFFSET 0.0502701 92.146 0
  CHANNELS 6 Xposition Yposition Zposition Zrotation Xrotation Yrotation
  JOINT Bip01_Pelvis
  {
    OFFSET 0 0 0
    CHANNELS 6 Xposition Yposition Zposition Zrotation Xrotation Yrotation
    JOINT BN_Tai_01
    {
      OFFSET -4.6544 -2.06234 0
      CHANNELS 6 Xposition Yposition Zposition Zrotation Xrotation Yrotation
      JOINT BN_Tai_R_01
      {
        OFFSET 10.2279 -0.119812 3.68897
        CHANNELS 6 Xposition Yposition Zposition Zrotation Xrotation Yrotation
        JOINT BN_Tai_R_02
        {
          OFFSET 15.0421 0 1.52588e-005
          CHANNELS 6 Xposition Yposition Zposition Zrotation Xrotation Yrotation
          End Site
          {
            OFFSET 0 0 0
          }
        }
      }
      JOINT BN_Tai_L_01
      {
        OFFSET 10.2279 -0.119797 -3.68907
        CHANNELS 6 Xposition Yposition Zposition Zrotation Xrotation Yrotation
        JOINT BN_Tai_L_02
        {
          OFFSET 15.0421 0 0
          CHANNELS 6 Xposition Yposition Zposition Zrotation Xrotation Yrotation
          End Site
          {
            OFFSET 0 0 0
          }
        }
      }
    }
    JOINT Bip01_Spine
    {
      OFFSET 2.7319 1.49192 0
      CHANNELS 6 Xposition Yposition Zposition Zrotation Xrotation Yrotation
      JOINT Bip01_R_Thigh
      {
        OFFSET -2.85206 -1.24717 -6.20578
        CHANNELS 6 Xposition Yposition Zposition Zrotation Xrotation Yrotation
        JOINT Bip01_R_Calf
        {
          OFFSET 6.73247 0 0
          CHANNELS 6 Xposition Yposition Zposition Zrotation Xrotation Yrotation
          JOINT Bip01_R_HorseLink
          {
            OFFSET 8.08523 0 0
            CHANNELS 6 Xposition Yposition Zposition Zrotation Xrotation Yrotation
            JOINT Bip01_R_Foot
            {
              OFFSET 8.97518 0 0
              CHANNELS 6 Xposition Yposition Zposition Zrotation Xrotation Yrotation
              JOINT BN_Toe_R_30
              {
                OFFSET 1.58762 -0.234982 -0.295153
                CHANNELS 6 Xposition Yposition Zposition Zrotation Xrotation Yrotation
                JOINT BN_Toe_R_31
                {
                  OFFSET 3.03849 0 0
                  CHANNELS 6 Xposition Yposition Zposition Zrotation Xrotation Yrotation
                  End Site
                  {
                    OFFSET 0 0 0
                  }
                }
              }
              JOINT BN_Toe_R_00
              {
                OFFSET 1.65463 0.933666 1.02414
                CHANNELS 6 Xposition Yposition Zposition Zrotation Xrotation Yrotation
                JOINT BN_Toe_R_01
                {
                  OFFSET 3.51775 0 0
                  CHANNELS 6 Xposition Yposition Zposition Zrotation Xrotation Yrotation
                  End Site
                  {
                    OFFSET 0 0 0
                  }
                }
              }
              JOINT BN_Toe_R_20
              {
                OFFSET 1.47309 1.0106 -1.16708
                CHANNELS 6 Xposition Yposition Zposition Zrotation Xrotation Yrotation
                JOINT BN_Toe_R_21
                {
                  OFFSET 3.94896 0 0
                  CHANNELS 6 Xposition Yposition Zposition Zrotation Xrotation Yrotation
                  End Site
                  {
                    OFFSET 0 0 0
                  }
                }
              }
              JOINT BN_Toe_R_10
              {
                OFFSET 1.07522 1.64225 0.0223596
                CHANNELS 6 Xposition Yposition Zposition Zrotation Xrotation Yrotation
                JOINT BN_Toe_R_11
                {
                  OFFSET 4.09655 0 0
                  CHANNELS 6 Xposition Yposition Zposition Zrotation Xrotation Yrotation
                  End Site
                  {
                    OFFSET 0 0 0
                  }
                }
              }
              JOINT Bip01_R_Toe0
              {
                OFFSET 2.04238 1.88275 0
                CHANNELS 6 Xposition Yposition Zposition Zrotation Xrotation Yrotation
                End Site
                {
                  OFFSET 0 0 0
                }
              }
            }
          }
        }
      }
      JOINT Bip01_L_Thigh
      {
        OFFSET -2.85154 -1.24849 6.20577
        CHANNELS 6 Xposition Yposition Zposition Zrotation Xrotation Yrotation
        JOINT Bip01_L_Calf
        {
          OFFSET 6.73247 0 0
          CHANNELS 6 Xposition Yposition Zposition Zrotation Xrotation Yrotation
          JOINT Bip01_L_HorseLink
          {
            OFFSET 8.08524 0 0
            CHANNELS 6 Xposition Yposition Zposition Zrotation Xrotation Yrotation
            JOINT Bip01_L_Foot
            {
              OFFSET 8.97521 0 0
              CHANNELS 6 Xposition Yposition Zposition Zrotation Xrotation Yrotation
              JOINT BN_Toe_L_00
              {
                OFFSET 1.65461 0.933701 -1.02419
                CHANNELS 6 Xposition Yposition Zposition Zrotation Xrotation Yrotation
                JOINT BN_Toe_L_01
                {
                  OFFSET 3.51778 0 0
                  CHANNELS 6 Xposition Yposition Zposition Zrotation Xrotation Yrotation
                  End Site
                  {
                    OFFSET 0 0 0
                  }
                }
              }
              JOINT BN_Toe_L_10
              {
                OFFSET 1.07523 1.6422 -0.0221281
                CHANNELS 6 Xposition Yposition Zposition Zrotation Xrotation Yrotation
                JOINT BN_Toe_L_11
                {
                  OFFSET 4.09657 0 0
                  CHANNELS 6 Xposition Yposition Zposition Zrotation Xrotation Yrotation
                  End Site
                  {
                    OFFSET 0 0 0
                  }
                }
              }
              JOINT BN_Toe_L_30
              {
                OFFSET 1.58761 -0.234954 0.295135
                CHANNELS 6 Xposition Yposition Zposition Zrotation Xrotation Yrotation
                JOINT BN_Toe_L_31
                {
                  OFFSET 3.03847 0 0
                  CHANNELS 6 Xposition Yposition Zposition Zrotation Xrotation Yrotation
                  End Site
                  {
                    OFFSET 0 0 0
                  }
                }
              }
              JOINT BN_Toe_L_20
              {
                OFFSET 1.4731 1.01055 1.1673
                CHANNELS 6 Xposition Yposition Zposition Zrotation Xrotation Yrotation
                JOINT BN_Toe_L_21
                {
                  OFFSET 3.94897 0 0
                  CHANNELS 6 Xposition Yposition Zposition Zrotation Xrotation Yrotation
                  End Site
                  {
                    OFFSET 0 0 0
                  }
                }
              }
              JOINT Bip01_L_Toe0
              {
                OFFSET 2.04238 1.88276 0
                CHANNELS 6 Xposition Yposition Zposition Zrotation Xrotation Yrotation
                End Site
                {
                  OFFSET 0 0 0
                }
              }
            }
          }
        }
      }
      JOINT Bip01_Spine1
      {
        OFFSET 8.6167 -0.00679016 0
        CHANNELS 6 Xposition Yposition Zposition Zrotation Xrotation Yrotation
        JOINT BN_Wing_R_01
        {
          OFFSET 0.267445 -6.12421 -7.49305
          CHANNELS 6 Xposition Yposition Zposition Zrotation Xrotation Yrotation
          JOINT BN_Wing_R_02
          {
            OFFSET 14.7158 0 0
            CHANNELS 6 Xposition Yposition Zposition Zrotation Xrotation Yrotation
            JOINT BN_Wing_R_03
            {
              OFFSET 19.0858 0 0
              CHANNELS 6 Xposition Yposition Zposition Zrotation Xrotation Yrotation
              JOINT BN_Wing_R_05
              {
                OFFSET 2.68908 -0.270637 0.785261
                CHANNELS 6 Xposition Yposition Zposition Zrotation Xrotation Yrotation
                JOINT BN_Wing_R_06
                {
                  OFFSET 21.1083 0 0
                  CHANNELS 6 Xposition Yposition Zposition Zrotation Xrotation Yrotation
                  End Site
                  {
                    OFFSET 0 0 0
                  }
                }
              }
              JOINT BN_Wing_R_04
              {
                OFFSET 27.642 0 0
                CHANNELS 6 Xposition Yposition Zposition Zrotation Xrotation Yrotation
                End Site
                {
                  OFFSET 0 0 0
                }
              }
            }
          }
        }
        JOINT BN_Wing_L_01
        {
          OFFSET 0.267452 -6.12421 7.49305
          CHANNELS 6 Xposition Yposition Zposition Zrotation Xrotation Yrotation
          JOINT BN_Wing_L_02
          {
            OFFSET 14.7158 0 0
            CHANNELS 6 Xposition Yposition Zposition Zrotation Xrotation Yrotation
            JOINT BN_Wing_L_03
            {
              OFFSET 19.0858 0 0
              CHANNELS 6 Xposition Yposition Zposition Zrotation Xrotation Yrotation
              JOINT BN_Wing_L_05
              {
                OFFSET 2.68908 -0.270635 -0.785254
                CHANNELS 6 Xposition Yposition Zposition Zrotation Xrotation Yrotation
                JOINT BN_Wing_L_06
                {
                  OFFSET 21.1083 0 0
                  CHANNELS 6 Xposition Yposition Zposition Zrotation Xrotation Yrotation
                  End Site
                  {
                    OFFSET 0 0 0
                  }
                }
              }
              JOINT BN_Wing_L_04
              {
                OFFSET 27.642 0 1.14441e-005
                CHANNELS 6 Xposition Yposition Zposition Zrotation Xrotation Yrotation
                End Site
                {
                  OFFSET 0 0 0
                }
              }
            }
          }
        }
        JOINT Bip01_Neck
        {
          OFFSET 7.59958 -1.43237 0
          CHANNELS 6 Xposition Yposition Zposition Zrotation Xrotation Yrotation
          JOINT Bip01_Neck1
          {
            OFFSET 3.64749 -0.00262451 0
            CHANNELS 6 Xposition Yposition Zposition Zrotation Xrotation Yrotation
            JOINT Bip01_Neck2
            {
              OFFSET 3.32331 -0.00284576 0
              CHANNELS 6 Xposition Yposition Zposition Zrotation Xrotation Yrotation
              JOINT Bip01_Head
              {
                OFFSET 4.63256 -0.573471 0
                CHANNELS 6 Xposition Yposition Zposition Zrotation Xrotation Yrotation
                JOINT BN_Jaw
                {
                  OFFSET 1.05386 2.23561 0
                  CHANNELS 6 Xposition Yposition Zposition Zrotation Xrotation Yrotation
                  End Site
                  {
                    OFFSET 0 0 0
                  }
                }
              }
            }
          }
        }
      }
    }
  }
}
MOTION
Frames:	4
Frame Time:	0.0333333
0.0502691 87.351 0 -104.144 -90 -7.74927 0 0 0 -89.9965 -3.50835e-015 -90 -4.6544 -2.06233 8.67362e-019 -19.0018 2.00381 179.997 10.228 -0.119782 3.68875 36.5624 81.5018 -55.7832 15.0421 -0.000527382 1.42108e-014 4.2256 -4.98204 -5.01611 10.2278 -0.119759 -3.6893 -133.972 78.6246 114.888 15.0421 -0.000518322 -1.52588e-005 -4.66748 4.99966 0.000685932 3.11133 0.11274 8.67362e-019 -22.4946 6.61985e-006 -1.59865e-005 -2.8318 -1.29373 -6.20579 -99.8142 -8.86519 -177.333 6.73248 3.8147e-006 -3.09944e-006 -121.271 -1.37531e-005 3.53126e-006 8.08523 1.52588e-005 2.86102e-006 15.6036 2.98915e-007 1.20261e-007 8.97519 7.6294e-006 -4.44089e-016 -77.0777 8.70727 3.02358 1.5876 -0.234968 -0.295153 -156.631 -4.8915 -175.849 3.03848 -1.14441e-005 2.38419e-007 -25.8817 1.15527e-007 8.30226e-007 1.65461 0.933662 1.02414 62.1476 34.1323 -24.3101 3.51775 -1.42109e-014 -3.8147e-006 2.76652 -1.71814e-005 1.12354e-005 1.47309 1.01061 -1.16708 66.0946 -49.3208 19.0248 3.94897 -7.10543e-015 3.8147e-006 -24.1264 -1.58053e-005 -3.19657e-006 1.0752 1.64226 0.0223622 36.0897 -5.51654 -3.00413 4.09654 7.10543e-015 -4.76837e-007 20.7251 1.27633e-005 5.96523e-006 2.04237 1.88276 0 106.363 -17.7037 45.4714 -2.83181 -1.29376 6.20577 -112.747 11.352 176.645 6.73248 -3.8147e-006 -9.53674e-007 -142.239 -8.24069e-007 8.43744e-008 8.08523 1.42109e-014 -3.55271e-015 16.3204 9.44256e-006 -2.6434e-006 8.97519 1.42109e-014 -1.77636e-015 -35.832 -11.7977 0.414103 1.65462 0.933689 -1.02419 46.233 -43.81 25.9295 3.51775 7.62939e-006 -3.8147e-006 -2.37825 1.00991e-005 3.3773e-007 1.07523 1.6422 -0.0221257 30.6714 5.20903 3.51223 4.09656 -7.62939e-006 -4.76837e-007 -13.534 1.38646e-005 -1.4629e-005 1.58763 -0.234943 0.295138 -171.661 5.79564 177.253 3.03847 0 0 -21.9814 5.81633e-006 1.27755e-005 1.47312 1.01056 1.1673 23.1595 52.7971 -12.2969 3.94895 7.10543e-015 0 0.101431 -3.41516e-006 1.17089e-006 2.04238 1.88275 4.76837e-007 74.5392 22.2557 -28.4724 8.61878 -0.0067749 4.65661e-010 9.15482 7.13738e-006 -1.86763e-005 0.267454 -6.1242 -7.49305 -68.2118 4.03293 48.2619 14.7159 -2.86102e-006 -1.42109e-014 26.0008 -2.7263 7.92602 19.0858 3.8147e-006 -7.6294e-006 -25.6662 29.2753 -25.4656 2.68912 -0.270634 0.785261 -43.932 3.23081 -0.296053 21.1083 0 -3.8147e-006 -2.17301 0.00182083 -23.8733 27.642 7.62939e-006 3.8147e-006 12.0007 -3.33926 -30.3863 0.267454 -6.12423 7.49305 -68.2118 -4.03292 -48.262 14.7159 -3.8147e-006 -7.62939e-006 26.0008 2.72629 -7.92602 19.0858 3.8147e-006 0 -32.6806 -14.7008 22.8147 2.68912 -0.270641 -0.785265 -43.932 -3.23081 0.296063 21.1083 0 -3.55271e-015 -2.17301 -0.0018185 23.8733 27.642 1.90735e-006 -3.8147e-006 12.0007 3.33927 30.3863 7.59931 -1.43243 4.65661e-010 1.46884 2.5669e-007 1.00146e-005 3.64782 -0.00263977 8.67362e-019 -0.339226 1.00178e-005 5.93326e-008 3.3241 -0.00283051 -8.67362e-019 10.868 -1.35888e-016 6.51236e-012 4.63256 -0.573464 -8.67362e-019 -38.3927 1.62999e-006 1.40733e-005 1.05387 2.23561 -8.67362e-019 -98.4799 -0.0331268 -179.971 
0.0502691 87.4531 3.092e-010 -68.992 -90 27.7209 0 0 0 -89.9968 0.634303 -89.9976 -4.6544 -2.06233 5.06539e-016 -19.0722 2.00381 180 10.228 -0.119782 3.68875 36.3153 81.4958 -55.306 15.0421 -0.000527382 1.42108e-014 4.09005 -4.96594 -8.31943 10.2278 -0.119759 -3.6893 -134.096 78.626 115.242 15.0421 -0.000518322 -1.52588e-005 -4.52583 5.01018 -3.27614 3.10959 0.14901 -1.07197e-013 -22.0348 6.49134e-006 -1.60391e-005 -2.8266 -1.30467 -6.20579 -97.9242 -8.64626 -177.122 6.73248 3.8147e-006 -3.09944e-006 -119.162 -4.8658e-006 8.91646e-006 8.08523 1.52588e-005 2.86102e-006 14.7233 2.8431e-006 9.81381e-006 8.97519 7.6294e-006 2.66454e-015 -75.6742 8.63936 2.85317 1.5876 -0.234968 -0.295153 -156.157 -4.86144 -175.808 3.03848 -1.14441e-005 2.38419e-007 -26.1045 1.10537e-007 8.28319e-007 1.65461 0.933662 1.02414 61.6774 34.3069 -24.0457 3.51775 0 -3.8147e-006 2.2787 -1.75405e-005 3.08122e-006 1.47309 1.01061 -1.16708 65.4712 -49.4574 18.552 3.94897 0 3.8147e-006 -24.6613 -1.95164e-005 5.00018e-006 1.0752 1.64226 0.0223622 35.6593 -5.49467 -3.04647 4.09654 -7.10543e-015 -4.76837e-007 20.1891 1.27191e-005 6.08351e-006 2.04237 1.88276 2.38742e-012 106.431 -18.0283 45.3344 -2.82661 -1.30417 6.20577 -110.536 10.9866 176.291 6.73248 -3.8147e-006 -9.53674e-007 -139.961 -7.2657e-006 -7.57218e-006 8.08523 -4.26326e-014 1.77636e-015 15.9821 9.42147e-006 -2.85313e-006 8.97519 1.42109e-014 3.55271e-015 -35.9333 -11.5522 0.340063 1.65462 0.933689 -1.02419 47.3786 -43.4059 26.7134 3.51775 7.62939e-006 -3.8147e-006 -1.77574 1.00907e-005 1.28375e-006 1.07523 1.6422 -0.0221257 31.5653 5.26303 3.43065 4.09656 -7.62939e-006 -4.76837e-007 -12.9317 1.37236e-005 -1.47638e-005 1.58763 -0.234943 0.295138 -171.871 5.81258 177.273 3.03847 -4.26326e-014 -7.10543e-015 -21.7025 5.86455e-006 1.27464e-005 1.47312 1.01056 1.1673 24.0084 52.6819 -12.9725 3.94895 -7.10543e-015 1.42109e-014 0.704675 -3.32959e-006 9.18729e-006 2.04238 1.88275 4.76825e-007 75.2995 22.3715 -28.9569 8.61878 -0.0067749 4.65661e-010 9.60365 6.99086e-006 -1.87317e-005 0.267454 -6.1242 -7.49305 -68.7233 4.99009 57.6359 14.7159 -2.86102e-006 2.84217e-014 28.6916 -2.33524 8.10259 19.0858 3.8147e-006 -7.6294e-006 -22.8612 27.1204 -26.2674 2.68912 -0.270634 0.785261 -43.9376 3.25494 -2.3148 21.1083 -1.13687e-013 -3.8147e-006 -2.1734 0.00251954 -26.5655 27.642 7.62939e-006 3.8147e-006 10.5753 -2.31357 -34.8986 0.267454 -6.12423 7.49305 -68.5474 -5.25674 -57.6558 14.7159 -3.8147e-006 -7.62939e-006 28.6916 2.33524 -8.10258 19.0858 3.8147e-006 2.84217e-014 -29.4361 -13.9374 23.9427 2.68912 -0.270641 -0.785265 -43.9375 -3.25492 2.3148 21.1083 -9.09494e-013 7.10543e-015 -2.1734 -0.00251883 26.5655 27.642 1.90735e-006 -3.8147e-006 10.5753 2.31357 34.8987 7.59931 -1.43243 4.65661e-010 1.59287 2.7837e-007 1.0014e-005 3.64782 -0.00263977 -1.73472e-018 -0.328083 1.00178e-005 5.73842e-008 3.3241 -0.00283051 2.60209e-018 10.3787 -9.81565e-014 6.51239e-012 4.63256 -0.573464 -1.8735e-016 -37.4436 1.86287e-006 1.40443e-005 1.05387 2.23561 -2.22478e-015 -98.4068 -0.0319672 -179.972 
0.0502691 87.8087 1.38669e-009 -100.664 -90 -3.64866 0 0 0 -89.997 1.3259 -89.9976 -4.6544 -2.06233 1.33487e-015 -19.2654 2.0038 -179.993 10.228 -0.119782 3.68875 35.6488 81.4714 -54.0003 15.0421 -0.000527382 1.42108e-014 3.95822 -4.94254 -11.5585 10.2278 -0.119759 -3.6893 -134.426 78.638 116.205 15.0421 -0.000518322 -1.52588e-005 -4.33328 4.99382 -7.38081 3.10789 0.184566 -2.11856e-013 -21.312 6.2885e-006 -1.61197e-005 -2.82845 -1.30106 -6.20579 -95.7249 -8.42135 -176.796 6.73248 3.8147e-006 -3.09944e-006 -116.736 -4.48404e-006 9.11443e-006 8.08523 1.52588e-005 2.86102e-006 14.1857 2.7509e-006 9.84006e-006 8.97519 7.6294e-006 4.88498e-015 -73.8724 8.56756 2.60391 1.5876 -0.234968 -0.295153 -155.692 -4.83166 -175.768 3.03848 -1.14441e-005 2.38419e-007 -26.3229 1.04852e-007 8.26658e-007 1.65461 0.933662 1.02414 61.0773 34.526 -23.7065 3.51775 7.10543e-015 -3.8147e-006 1.80037 -1.75191e-005 2.76947e-006 1.47309 1.01061 -1.16708 64.68 -49.6241 17.9509 3.94897 -7.10543e-015 3.8147e-006 -25.1859 -1.9493e-005 4.89667e-006 1.0752 1.64226 0.0223622 35.119 -5.46508 -3.09705 4.09654 0 -4.76837e-007 19.6635 1.26733e-005 6.19915e-006 2.04237 1.88276 3.0731e-013 106.497 -18.3468 45.2002 -2.82845 -1.30109 6.20577 -108.491 10.4115 175.871 6.73248 -3.8147e-006 -9.53674e-007 -135.944 -7.79279e-006 -7.07887e-006 8.08523 -2.84217e-014 0 14.2738 9.57843e-006 -2.55127e-006 8.97519 -1.42109e-014 -3.55271e-015 -36.0691 -11.1486 0.175945 1.65462 0.933689 -1.02419 48.3206 -43.0599 27.3546 3.51775 7.62939e-006 -3.8147e-006 -1.18494 1.01417e-005 1.89656e-007 1.07523 1.6422 -0.0221257 32.325 5.30792 3.36066 4.09656 -7.62939e-006 -4.76837e-007 -12.3412 1.35812e-005 -1.4894e-005 1.58763 -0.234943 0.295138 -172.387 5.83766 177.326 3.03847 4.26326e-014 0 -21.4291 5.9112e-006 1.27192e-005 1.47312 1.01056 1.1673 25.098 52.5241 -13.8382 3.94895 -7.10543e-015 -7.10543e-015 1.2962 -3.2581e-006 9.18362e-006 2.04238 1.88275 4.76819e-007 77.303 22.6546 -30.2433 8.61878 -0.0067749 4.65661e-010 9.92688 6.88507e-006 -1.87708e-005 0.267454 -6.1242 -7.49305 -69.7835 5.435 68.2794 14.7159 -2.86102e-006 2.84217e-014 34.886 -1.43779 8.21863 19.0859 3.8147e-006 -7.6294e-006 -22.518 22.4308 -26.0095 2.68912 -0.270634 0.785261 -43.9459 3.26163 -4.83565 21.1083 -1.42108e-014 -3.8147e-006 -2.17318 0.00215067 -28.0518 27.642 7.62939e-006 3.8147e-006 7.8639 -0.307726 -37.6537 0.267454 -6.12423 7.49305 -69.9675 -5.46214 -69.0151 14.7159 -3.8147e-006 -7.62939e-006 34.886 1.43779 -8.21864 19.0858 3.8147e-006 2.84217e-014 -27.5147 -12.3057 24.5103 2.68912 -0.270641 -0.785265 -43.9459 -3.26162 4.83564 21.1083 -9.09494e-013 -4.54747e-013 -2.17318 -0.00214986 28.0518 27.642 1.90735e-006 -3.8147e-006 7.86391 0.307732 37.6537 7.59931 -1.43243 4.65661e-010 1.40239 2.45077e-007 1.00149e-005 3.64782 -0.00263977 -1.73472e-018 0.0909135 1.0018e-005 -1.58754e-008 3.3241 -0.00283051 -8.67362e-019 9.55483 -1.31237e-013 6.51711e-012 4.63256 -0.573464 1.09288e-016 -36.0788 2.19684e-006 1.3996e-005 1.05387 2.23561 -1.75034e-015 -98.3351 -0.030838 -179.973 
0.0502691 88.3778 3.11072e-009 -90.7967 -90 6.49914 0 0 0 -89.9971 2.06453 -89.9976 -4.6544 -2.06233 1.96544e-015 -19.5712 2.00374 -179.983 10.228 -0.119782 3.68875 34.613 81.4259 -51.956 15.0421 -0.000527382 1.42108e-014 3.8115 -4.88085 -15.1718 10.2278 -0.119759 -3.6893 -134.991 78.6442 117.772 15.0421 -0.000518322 -1.52588e-005 -4.14053 4.96347 -11.5259 3.10487 0.223613 -3.28276e-013 -20.3697 6.02255e-006 -1.62209e-005 -2.83292 -1.2901 -6.20579 -93.3175 -8.08671 -176.471 6.73248 3.8147e-006 -3.09944e-006 -114.034 -4.04931e-006 9.31571e-006 8.08523 1.52588e-005 2.86102e-006 13.8933 2.95193e-007 1.29132e-007 8.97519 7.6294e-006 6.21725e-015 -71.7754 8.48041 2.30682 1.5876 -0.234968 -0.295153 -155.114 -4.78759 -175.72 3.03848 -1.14441e-005 2.38419e-007 -26.5436 9.95628e-008 8.24534e-007 1.65461 0.933662 1.02414 60.4681 34.7443 -23.3603 3.51775 -1.42109e-014 -3.8147e-006 1.31729 -1.74901e-005 2.72779e-006 1.47309 1.01061 -1.16708 63.8755 -49.787 17.3382 3.94897 0 3.8147e-006 -25.7156 -1.94635e-005 4.78522e-006 1.0752 1.64226 0.0223622 34.5735 -5.43471 -3.14781 4.09654 0 -4.76837e-007 19.1326 1.26281e-005 6.3152e-006 2.04237 1.88276 1.95488e-012 106.666 -19.1898 44.8445 -2.83292 -1.29012 6.20577 -106.72 9.71026 175.451 6.73248 -3.8147e-006 -9.53674e-007 -130.944 -8.20453e-007 1.48296e-007 8.08523 1.42109e-014 8.88179e-016 11.7114 9.76453e-006 -2.08997e-006 8.97519 -4.26326e-014 4.44089e-015 -36.2728 -10.6757 -0.0586149 1.65462 0.933689 -1.02419 49.0973 -42.7993 27.8492 3.51775 7.62939e-006 -3.8147e-006 -0.588289 1.00528e-005 1.01295e-005 1.07523 1.6422 -0.0221257 32.9582 5.34462 3.30189 4.09656 -7.62939e-006 -4.76837e-007 -11.7447 1.34309e-005 -1.50241e-005 1.58763 -0.234943 0.295138 -173.052 5.86903 177.437 3.03847 -2.84217e-014 -1.77636e-015 -21.153 5.95975e-006 1.26939e-005 1.47312 1.01056 1.1673 26.1902 52.3548 -14.704 3.94895 -7.10543e-015 7.10543e-015 1.89359 -3.18234e-006 9.18173e-006 2.04238 1.88275 4.76811e-007 80.0857 22.9732 -32.038 8.61878 -0.0067749 4.65661e-010 10.148 6.81257e-006 -1.87972e-005 0.267454 -6.1242 -7.49305 -71.2266 5.27227 80.0138 14.7159 -2.86102e-006 4.26326e-014 42.3417 -0.355031 8.2825 19.0859 3.8147e-006 -7.6294e-006 -23.6313 16.4326 -25.4072 2.68912 -0.270634 0.785261 -43.9511 3.25669 -7.41585 21.1083 2.13163e-013 -3.8147e-006 -2.17299 0.00117225 -28.7009 27.642 7.62939e-006 3.8147e-006 4.78291 1.97105 -39.1949 0.267454 -6.12423 7.49305 -71.8788 -4.72659 -81.5676 14.7159 -3.8147e-006 -7.62939e-006 42.3416 0.35503 -8.2825 19.0858 3.8147e-006 -7.10543e-014 -26.6286 -10.1883 24.7167 2.68912 -0.270641 -0.785265 -43.9511 -3.25669 7.41586 21.1083 -9.09494e-013 -9.09495e-013 -2.17299 -0.00116895 28.7009 27.642 1.90735e-006 -3.8147e-006 4.78292 -1.97105 39.1948 7.59931 -1.43243 4.65661e-010 0.965232 1.68658e-007 1.00165e-005 3.64782 -0.00263977 -1.73472e-018 0.807865 1.0017e-005 -1.41227e-007 3.3241 -0.00283051 0 8.49188 -3.12265e-013 6.50893e-012 4.63256 -0.573464 -2.78423e-016 -34.4687 2.58925e-006 1.39287e-005 1.05387 2.23561 -2.21784e-015 -98.2627 -0.0296936 -179.974 
